<svg width="66" height="62" viewBox="0 0 66 62" fill="none"
    xmlns="http://www.w3.org/2000/svg">
    <path d="M32.1038 0.816503C28.5166 0.806941 24.9625 1.50405 21.6447 2.868C18.3268 4.23196 15.3101 6.23605 12.7668 8.76587C10.2235 11.2957 8.20334 14.3017 6.82174 17.6123C5.44014 20.9228 4.72413 24.473 4.7146 28.0603V30.3993C4.71524 31.7989 4.82056 33.1965 5.02969 34.5804C6.7957 34.034 8.63471 33.7602 10.4833 33.7684C14.0865 33.7367 17.6217 34.7501 20.6609 36.6859C23.7001 38.6217 26.113 41.3969 27.6076 44.6756C28.6432 46.9592 29.1724 49.4398 29.1589 51.9471C29.1627 53.8139 28.8597 55.6686 28.2621 57.4371C29.5346 57.618 30.8185 57.7071 32.1038 57.7037H46.1863C48.748 57.7117 51.2862 57.2148 53.6559 56.2414C56.0255 55.2681 58.1802 53.8373 59.9967 52.031C61.8132 50.2246 63.2559 48.078 64.2425 45.7138C65.2291 43.3497 65.7402 40.8142 65.7465 38.2525V0.816503H32.1038Z" class="fill"></path>
    <path d="M21.851 51.5203C21.8604 52.9095 21.5625 54.2835 20.9784 55.5439C20.3934 56.794 19.5701 57.9178 18.5546 58.8524C17.5256 59.8147 16.3307 60.5825 15.0279 61.1187C13.6675 61.6793 12.2091 61.9635 10.7377 61.9549C9.31318 61.9657 7.90186 61.681 6.59296 61.1187C5.33023 60.5751 4.17644 59.8073 3.18749 58.8524C2.19961 57.9126 1.40505 56.7887 0.848508 55.5439C0.283791 54.278 -0.00537574 52.9065 0.000172803 51.5203C-0.00810193 50.1026 0.280888 48.699 0.848508 47.3998C1.41743 46.1423 2.22398 45.0065 3.22385 44.055C4.20592 43.0915 5.36141 42.3226 6.62934 41.7887C7.94335 41.2457 9.3523 40.9696 10.7741 40.9767C12.2428 40.9718 13.6989 41.2474 15.0642 41.7887C16.3718 42.3156 17.5683 43.0845 18.5909 44.055C19.607 45.0125 20.4299 46.1562 21.0147 47.4241C21.5855 48.7133 21.8707 50.1106 21.851 51.5203Z" class="fill"></path>
</svg>