<svg viewBox="0 0 1024 1024" class="icon" version="1.1"
    xmlns="http://www.w3.org/2000/svg" fill="#000000">
    <g id="SVGRepo_bgCarrier" stroke-width="0"></g>
    <g id="SVGRepo_tracerCarrier" stroke-linecap="round" stroke-linejoin="round"></g>
    <g id="SVGRepo_iconCarrier">
        <path d="M853.333333 192V149.333333h-192v106.666667H320v234.666667H170.666667v42.666666h149.333333v234.666667h341.333333v106.666667h192v-42.666667h-149.333333v-170.666667h149.333333v-42.666666h-192v106.666666H362.666667V298.666667h298.666666v106.666666h192v-42.666666h-149.333333V192z" fill="#CFD8DC"></path>
        <path d="M85.333333 426.666667h170.666667v170.666666H85.333333z" fill="#00BCD4"></path>
        <path d="M768 298.666667h170.666667v170.666666h-170.666667zM768 85.333333h170.666667v170.666667h-170.666667zM426.666667 192h170.666666v170.666667h-170.666666zM426.666667 661.333333h170.666666v170.666667h-170.666666zM768 768h170.666667v170.666667h-170.666667zM768 554.666667h170.666667v170.666666h-170.666667z" fill="#4285f4"></path>
    </g>
</svg>